<svg xmlns="http://www.w3.org/2000/svg" width="1440" height="900"><path d="M783,750L442,768L677,902Z" fill="#dcdcdc" stroke="#dcdcdc" stroke-width="1.51"/><path d="M783,750L539,467L442,768Z" fill="#e6e6e6" stroke="#e6e6e6" stroke-width="1.51"/><path d="M442,768L455,993L677,902Z" fill="#d4d4d4" stroke="#d4d4d4" stroke-width="1.51"/><path d="M539,467L292,716L442,768Z" fill="#e2e2e2" stroke="#e2e2e2" stroke-width="1.51"/><path d="M442,768L191,878L455,993Z" fill="#d0d0d0" stroke="#d0d0d0" stroke-width="1.51"/><path d="M783,750L686,406L539,467Z" fill="#f0f0f0" stroke="#f0f0f0" stroke-width="1.51"/><path d="M783,750L985,423L686,406Z" fill="#eeeeee" stroke="#eeeeee" stroke-width="1.51"/><path d="M1021,941L993,692L783,750Z" fill="#d3d3d3" stroke="#d3d3d3" stroke-width="1.51"/><path d="M292,716L191,878L442,768Z" fill="#d5d5d5" stroke="#d5d5d5" stroke-width="1.51"/><path d="M677,902L1021,941L783,750Z" fill="#d4d4d4" stroke="#d4d4d4" stroke-width="1.51"/><path d="M900,1127L1021,941L677,902Z" fill="#c9c9c9" stroke="#c9c9c9" stroke-width="1.51"/><path d="M669,1262L900,1127L677,902Z" fill="#c8c8c8" stroke="#c8c8c8" stroke-width="1.51"/><path d="M993,692L985,423L783,750Z" fill="#e0e0e0" stroke="#e0e0e0" stroke-width="1.51"/><path d="M1040,255L985,423L1194,251Z" fill="#e0e0e0" stroke="#e0e0e0" stroke-width="1.51"/><path d="M539,467L255,396L292,716Z" fill="#eaeaea" stroke="#eaeaea" stroke-width="1.51"/><path d="M292,716L-58,739L191,878Z" fill="#d2d2d2" stroke="#d2d2d2" stroke-width="1.51"/><path d="M410,258L255,396L539,467Z" fill="#eeeeee" stroke="#eeeeee" stroke-width="1.51"/><path d="M455,993L669,1262L677,902Z" fill="#cacaca" stroke="#cacaca" stroke-width="1.51"/><path d="M524,1279L669,1262L455,993Z" fill="#bfbfbf" stroke="#bfbfbf" stroke-width="1.51"/><path d="M683,146L410,258L686,406Z" fill="#efefef" stroke="#efefef" stroke-width="1.51"/><path d="M686,406L410,258L539,467Z" fill="#f2f2f2" stroke="#f2f2f2" stroke-width="1.51"/><path d="M214,1146L524,1279L455,993Z" fill="#bebebe" stroke="#bebebe" stroke-width="1.51"/><path d="M191,878L214,1146L455,993Z" fill="#c5c5c5" stroke="#c5c5c5" stroke-width="1.51"/><path d="M1021,941L1276,690L993,692Z" fill="#cbcbcb" stroke="#cbcbcb" stroke-width="1.51"/><path d="M900,1127L1145,1006L1021,941Z" fill="#bebebe" stroke="#bebebe" stroke-width="1.51"/><path d="M1207,1209L1145,1006L900,1127Z" fill="#b4b4b4" stroke="#b4b4b4" stroke-width="1.51"/><path d="M1040,255L683,146L686,406Z" fill="#eeeeee" stroke="#eeeeee" stroke-width="1.51"/><path d="M985,423L1040,255L686,406Z" fill="#ebebeb" stroke="#ebebeb" stroke-width="1.51"/><path d="M1276,424L985,423L993,692Z" fill="#dfdfdf" stroke="#dfdfdf" stroke-width="1.51"/><path d="M1145,1006L1276,690L1021,941Z" fill="#c1c1c1" stroke="#c1c1c1" stroke-width="1.51"/><path d="M255,396L-58,739L292,716Z" fill="#dedede" stroke="#dedede" stroke-width="1.51"/><path d="M191,878L-94,966L214,1146Z" fill="#c1c1c1" stroke="#c1c1c1" stroke-width="1.51"/><path d="M255,396L-72,393L-58,739Z" fill="#e3e3e3" stroke="#e3e3e3" stroke-width="1.51"/><path d="M410,258L256,121L255,396Z" fill="#e7e7e7" stroke="#e7e7e7" stroke-width="1.51"/><path d="M426,-84L256,121L410,258Z" fill="#e3e3e3" stroke="#e3e3e3" stroke-width="1.51"/><path d="M236,1382L438,1446L524,1279Z" fill="#b1b1b1" stroke="#b1b1b1" stroke-width="1.51"/><path d="M524,1279L718,1497L669,1262Z" fill="#b7b7b7" stroke="#b7b7b7" stroke-width="1.51"/><path d="M1021,1444L1207,1209L900,1127Z" fill="#acacac" stroke="#acacac" stroke-width="1.51"/><path d="M1276,690L1276,424L993,692Z" fill="#d3d3d3" stroke="#d3d3d3" stroke-width="1.51"/><path d="M-58,739L-94,966L191,878Z" fill="#c8c8c8" stroke="#c8c8c8" stroke-width="1.51"/><path d="M214,1146L236,1382L524,1279Z" fill="#b3b3b3" stroke="#b3b3b3" stroke-width="1.51"/><path d="M-33,1197L236,1382L214,1146Z" fill="#b1b1b1" stroke="#b1b1b1" stroke-width="1.51"/><path d="M1456,923L1399,722L1276,690Z" fill="#bcbcbc" stroke="#bcbcbc" stroke-width="1.51"/><path d="M1021,1444L900,1127L669,1262Z" fill="#b4b4b4" stroke="#b4b4b4" stroke-width="1.51"/><path d="M438,1446L718,1497L524,1279Z" fill="#b5b5b5" stroke="#b5b5b5" stroke-width="1.51"/><path d="M1276,424L1194,251L985,423Z" fill="#dddddd" stroke="#dddddd" stroke-width="1.51"/><path d="M1040,255L775,-54L683,146Z" fill="#e7e7e7" stroke="#e7e7e7" stroke-width="1.51"/><path d="M-58,739L-317,775L-94,966Z" fill="#c7c7c7" stroke="#c7c7c7" stroke-width="1.51"/><path d="M-84,239L-72,393L255,396Z" fill="#e3e3e3" stroke="#e3e3e3" stroke-width="1.51"/><path d="M1276,690L1482,447L1276,424Z" fill="#d0d0d0" stroke="#d0d0d0" stroke-width="1.51"/><path d="M1456,923L1276,690L1145,1006Z" fill="#b9b9b9" stroke="#b9b9b9" stroke-width="1.51"/><path d="M-94,966L-33,1197L214,1146Z" fill="#b8b8b8" stroke="#b8b8b8" stroke-width="1.51"/><path d="M718,1497L1021,1444L669,1262Z" fill="#b4b4b4" stroke="#b4b4b4" stroke-width="1.51"/><path d="M683,146L426,-84L410,258Z" fill="#e8e8e8" stroke="#e8e8e8" stroke-width="1.51"/><path d="M960,-90L775,-54L1040,255Z" fill="#dfdfdf" stroke="#dfdfdf" stroke-width="1.51"/><path d="M256,121L-84,239L255,396Z" fill="#e3e3e3" stroke="#e3e3e3" stroke-width="1.51"/><path d="M775,-54L426,-84L683,146Z" fill="#e7e7e7" stroke="#e7e7e7" stroke-width="1.51"/><path d="M-305,470L-317,775L-58,739Z" fill="#d1d1d1" stroke="#d1d1d1" stroke-width="1.51"/><path d="M153,3L-84,239L256,121Z" fill="#dedede" stroke="#dedede" stroke-width="1.51"/><path d="M1453,1216L1456,923L1207,1209Z" fill="#a4a4a4" stroke="#a4a4a4" stroke-width="1.51"/><path d="M1207,1209L1456,923L1145,1006Z" fill="#aeaeae" stroke="#aeaeae" stroke-width="1.51"/><path d="M426,-84L153,3L256,121Z" fill="#dfdfdf" stroke="#dfdfdf" stroke-width="1.51"/><path d="M708,-343L437,-296L426,-84Z" fill="#dddddd" stroke="#dddddd" stroke-width="1.51"/><path d="M1260,27L960,-90L1040,255Z" fill="#d7d7d7" stroke="#d7d7d7" stroke-width="1.51"/><path d="M1194,251L1260,27L1040,255Z" fill="#d6d6d6" stroke="#d6d6d6" stroke-width="1.51"/><path d="M1276,424L1400,262L1194,251Z" fill="#d4d4d4" stroke="#d4d4d4" stroke-width="1.51"/><path d="M1399,722L1482,447L1276,690Z" fill="#c7c7c7" stroke="#c7c7c7" stroke-width="1.51"/><path d="M1666,376L1482,447L1765,704Z" fill="#c0c0c0" stroke="#c0c0c0" stroke-width="1.51"/><path d="M1482,447L1400,262L1276,424Z" fill="#d0d0d0" stroke="#d0d0d0" stroke-width="1.51"/><path d="M438,1446L-40,1400L718,1497Z" fill="#b1b1b1" stroke="#b1b1b1" stroke-width="1.51"/><path d="M236,1382L-40,1400L438,1446Z" fill="#acacac" stroke="#acacac" stroke-width="1.51"/><path d="M-33,1197L-40,1400L236,1382Z" fill="#a8a8a8" stroke="#a8a8a8" stroke-width="1.51"/><path d="M-223,1238L-40,1400L-33,1197Z" fill="#a8a8a8" stroke="#a8a8a8" stroke-width="1.51"/><path d="M-94,966L-223,1238L-33,1197Z" fill="#b2b2b2" stroke="#b2b2b2" stroke-width="1.51"/><path d="M-305,470L-58,739L-72,393Z" fill="#dcdcdc" stroke="#dcdcdc" stroke-width="1.51"/><path d="M1021,1444L1179,1512L1207,1209Z" fill="#a2a2a2" stroke="#a2a2a2" stroke-width="1.51"/><path d="M718,1497L1179,1512L1021,1444Z" fill="#ababab" stroke="#ababab" stroke-width="1.51"/><path d="M-84,239L-305,470L-72,393Z" fill="#dfdfdf" stroke="#dfdfdf" stroke-width="1.51"/><path d="M1450,1455L1453,1216L1207,1209Z" fill="#989898" stroke="#989898" stroke-width="1.51"/><path d="M1456,923L1765,704L1399,722Z" fill="#b2b2b2" stroke="#b2b2b2" stroke-width="1.51"/><path d="M1400,262L1260,27L1194,251Z" fill="#d0d0d0" stroke="#d0d0d0" stroke-width="1.51"/><path d="M-356,948L-223,1238L-94,966Z" fill="#b5b5b5" stroke="#b5b5b5" stroke-width="1.51"/><path d="M-317,775L-356,948L-94,966Z" fill="#bfbfbf" stroke="#bfbfbf" stroke-width="1.51"/><path d="M-305,470L-356,948L-317,775Z" fill="#c9c9c9" stroke="#c9c9c9" stroke-width="1.51"/><path d="M31,-113L-213,129L-84,239Z" fill="#d7d7d7" stroke="#d7d7d7" stroke-width="1.51"/><path d="M-84,239L-213,129L-305,470Z" fill="#dbdbdb" stroke="#dbdbdb" stroke-width="1.51"/><path d="M153,3L31,-113L-84,239Z" fill="#d9d9d9" stroke="#d9d9d9" stroke-width="1.51"/><path d="M169,-300L31,-113L153,3Z" fill="#d6d6d6" stroke="#d6d6d6" stroke-width="1.51"/><path d="M169,-300L153,3L426,-84Z" fill="#d9d9d9" stroke="#d9d9d9" stroke-width="1.51"/><path d="M-356,948L-226,1377L-223,1238Z" fill="#aaaaaa" stroke="#aaaaaa" stroke-width="1.51"/><path d="M-223,1238L-226,1377L-40,1400Z" fill="#a3a3a3" stroke="#a3a3a3" stroke-width="1.51"/><path d="M-40,1400L-226,1377L718,1497Z" fill="#ababab" stroke="#ababab" stroke-width="1.51"/><path d="M708,-343L775,-54L960,-90Z" fill="#dfdfdf" stroke="#dfdfdf" stroke-width="1.51"/><path d="M708,-343L426,-84L775,-54Z" fill="#e2e2e2" stroke="#e2e2e2" stroke-width="1.51"/><path d="M1026,-377L708,-343L960,-90Z" fill="#d6d6d6" stroke="#d6d6d6" stroke-width="1.51"/><path d="M1179,1512L1450,1455L1207,1209Z" fill="#9a9a9a" stroke="#9a9a9a" stroke-width="1.51"/><path d="M1453,1216L1680,1007L1456,923Z" fill="#a0a0a0" stroke="#a0a0a0" stroke-width="1.51"/><path d="M1667,1214L1680,1007L1453,1216Z" fill="#969696" stroke="#969696" stroke-width="1.51"/><path d="M31,-113L-233,19L-213,129Z" fill="#d4d4d4" stroke="#d4d4d4" stroke-width="1.51"/><path d="M-213,129L-233,19L-305,470Z" fill="#d8d8d8" stroke="#d8d8d8" stroke-width="1.51"/><path d="M1765,704L1482,447L1399,722Z" fill="#bdbdbd" stroke="#bdbdbd" stroke-width="1.51"/><path d="M1482,447L1666,376L1400,262Z" fill="#c9c9c9" stroke="#c9c9c9" stroke-width="1.51"/><path d="M1400,262L1483,-18L1260,27Z" fill="#c7c7c7" stroke="#c7c7c7" stroke-width="1.51"/><path d="M1483,-18L1144,-254L1260,27Z" fill="#c6c6c6" stroke="#c6c6c6" stroke-width="1.51"/><path d="M1260,27L1144,-254L960,-90Z" fill="#cfcfcf" stroke="#cfcfcf" stroke-width="1.51"/><path d="M31,-113L34,-235L-233,19Z" fill="#d2d2d2" stroke="#d2d2d2" stroke-width="1.51"/><path d="M437,-296L169,-300L426,-84Z" fill="#d8d8d8" stroke="#d8d8d8" stroke-width="1.51"/><path d="M708,-343L169,-300L437,-296Z" fill="#d8d8d8" stroke="#d8d8d8" stroke-width="1.51"/><path d="M169,-300L34,-235L31,-113Z" fill="#d2d2d2" stroke="#d2d2d2" stroke-width="1.51"/><path d="M1680,1007L1765,704L1456,923Z" fill="#a6a6a6" stroke="#a6a6a6" stroke-width="1.51"/><path d="M1450,1455L1667,1214L1453,1216Z" fill="#909090" stroke="#909090" stroke-width="1.51"/><path d="M2047,991L1991,681L1765,704Z" fill="#a1a1a1" stroke="#a1a1a1" stroke-width="1.51"/><path d="M1704,279L1483,-18L1400,262Z" fill="#c1c1c1" stroke="#c1c1c1" stroke-width="1.51"/><path d="M1666,376L1704,279L1400,262Z" fill="#c3c3c3" stroke="#c3c3c3" stroke-width="1.51"/><path d="M2046,524L1704,279L1666,376Z" fill="#b9b9b9" stroke="#b9b9b9" stroke-width="1.51"/><path d="M708,-343L-337,-372L169,-300Z" fill="#d1d1d1" stroke="#d1d1d1" stroke-width="1.51"/><path d="M1144,-254L1026,-377L960,-90Z" fill="#cfcfcf" stroke="#cfcfcf" stroke-width="1.51"/><path d="M1529,-318L1026,-377L1144,-254Z" fill="#c2c2c2" stroke="#c2c2c2" stroke-width="1.51"/><path d="M1450,1455L1745,1428L1667,1214Z" fill="#888888" stroke="#888888" stroke-width="1.51"/><path d="M2047,991L1765,704L1680,1007Z" fill="#9a9a9a" stroke="#9a9a9a" stroke-width="1.51"/><path d="M2013,1513L1745,1428L1450,1455Z" fill="#828282" stroke="#828282" stroke-width="1.51"/><path d="M1765,704L2046,524L1666,376Z" fill="#b4b4b4" stroke="#b4b4b4" stroke-width="1.51"/><path d="M1952,1187L1680,1007L1667,1214Z" fill="#8d8d8d" stroke="#8d8d8d" stroke-width="1.51"/><path d="M1483,-18L1529,-318L1144,-254Z" fill="#bebebe" stroke="#bebebe" stroke-width="1.51"/><path d="M1704,279L1747,-67L1483,-18Z" fill="#b8b8b8" stroke="#b8b8b8" stroke-width="1.51"/><path d="M1903,135L1747,-67L1704,279Z" fill="#b1b1b1" stroke="#b1b1b1" stroke-width="1.51"/><path d="M1747,-67L1529,-318L1483,-18Z" fill="#b5b5b5" stroke="#b5b5b5" stroke-width="1.51"/><path d="M1745,1428L1952,1187L1667,1214Z" fill="#838383" stroke="#838383" stroke-width="1.51"/><path d="M2046,524L1903,135L1704,279Z" fill="#b5b5b5" stroke="#b5b5b5" stroke-width="1.51"/><path d="M1991,681L2046,524L1765,704Z" fill="#acacac" stroke="#acacac" stroke-width="1.51"/><path d="M2047,991L2046,524L1991,681Z" fill="#a5a5a5" stroke="#a5a5a5" stroke-width="1.51"/><path d="M1952,1187L2047,991L1680,1007Z" fill="#8f8f8f" stroke="#8f8f8f" stroke-width="1.51"/><path d="M169,-300L-337,-372L34,-235Z" fill="#cccccc" stroke="#cccccc" stroke-width="1.51"/><path d="M34,-235L-337,-372L-233,19Z" fill="#cccccc" stroke="#cccccc" stroke-width="1.51"/><path d="M-233,19L-337,-372L-305,470Z" fill="#d1d1d1" stroke="#d1d1d1" stroke-width="1.51"/><path d="M-305,470L-337,-372L-356,948Z" fill="#dadada" stroke="#dadada" stroke-width="1.51"/><path d="M1026,-377L-337,-372L708,-343Z" fill="#d7d7d7" stroke="#d7d7d7" stroke-width="1.51"/><path d="M1928,-329L1688,-356L1747,-67Z" fill="#a6a6a6" stroke="#a6a6a6" stroke-width="1.51"/><path d="M1747,-67L1688,-356L1529,-318Z" fill="#aeaeae" stroke="#aeaeae" stroke-width="1.51"/><path d="M1529,-318L1688,-356L1026,-377Z" fill="#b7b7b7" stroke="#b7b7b7" stroke-width="1.51"/><path d="M1903,135L1970,2L1747,-67Z" fill="#ababab" stroke="#ababab" stroke-width="1.51"/><path d="M2046,524L1970,2L1903,135Z" fill="#b1b1b1" stroke="#b1b1b1" stroke-width="1.51"/><path d="M1952,1187L2013,1513L2047,991Z" fill="#838383" stroke="#838383" stroke-width="1.51"/><path d="M1745,1428L2013,1513L1952,1187Z" fill="#7d7d7d" stroke="#7d7d7d" stroke-width="1.51"/><path d="M1179,1512L2013,1513L1450,1455Z" fill="#8c8c8c" stroke="#8c8c8c" stroke-width="1.51"/><path d="M1970,2L1928,-329L1747,-67Z" fill="#a6a6a6" stroke="#a6a6a6" stroke-width="1.51"/><path d="M2046,524L1928,-329L1970,2Z" fill="#adadad" stroke="#adadad" stroke-width="1.51"/></svg>