<svg xmlns="http://www.w3.org/2000/svg" width="1440" height="900"><path d="M861,503L953,524L969,405Z" fill="#e8e8e8" stroke="#e8e8e8" stroke-width="1.51"/><path d="M969,405L859,386L861,503Z" fill="#ececec" stroke="#ececec" stroke-width="1.51"/><path d="M969,405L847,298L859,386Z" fill="#e9e9e9" stroke="#e9e9e9" stroke-width="1.51"/><path d="M859,386L758,341L861,503Z" fill="#f0f0f0" stroke="#f0f0f0" stroke-width="1.51"/><path d="M969,405L1012,285L847,298Z" fill="#e4e4e4" stroke="#e4e4e4" stroke-width="1.51"/><path d="M1126,398L1012,285L969,405Z" fill="#e0e0e0" stroke="#e0e0e0" stroke-width="1.51"/><path d="M847,298L758,341L859,386Z" fill="#ededed" stroke="#ededed" stroke-width="1.51"/><path d="M953,524L1099,555L969,405Z" fill="#e1e1e1" stroke="#e1e1e1" stroke-width="1.51"/><path d="M870,661L972,660L953,524Z" fill="#dadada" stroke="#dadada" stroke-width="1.51"/><path d="M953,524L972,660L1099,555Z" fill="#d9d9d9" stroke="#d9d9d9" stroke-width="1.51"/><path d="M861,503L870,661L953,524Z" fill="#e2e2e2" stroke="#e2e2e2" stroke-width="1.51"/><path d="M745,629L870,661L861,503Z" fill="#e3e3e3" stroke="#e3e3e3" stroke-width="1.51"/><path d="M1099,555L1126,398L969,405Z" fill="#e1e1e1" stroke="#e1e1e1" stroke-width="1.51"/><path d="M758,341L696,522L861,503Z" fill="#f5f5f5" stroke="#f5f5f5" stroke-width="1.51"/><path d="M696,522L745,629L861,503Z" fill="#ececec" stroke="#ececec" stroke-width="1.51"/><path d="M972,660L1111,634L1099,555Z" fill="#d2d2d2" stroke="#d2d2d2" stroke-width="1.51"/><path d="M1255,554L1209,387L1126,398Z" fill="#d9d9d9" stroke="#d9d9d9" stroke-width="1.51"/><path d="M696,522L619,665L745,629Z" fill="#e8e8e8" stroke="#e8e8e8" stroke-width="1.51"/><path d="M758,341L627,497L696,522Z" fill="#f7f7f7" stroke="#f7f7f7" stroke-width="1.51"/><path d="M1126,398L1149,266L1012,285Z" fill="#dadada" stroke="#dadada" stroke-width="1.51"/><path d="M1255,554L1126,398L1099,555Z" fill="#d6d6d6" stroke="#d6d6d6" stroke-width="1.51"/><path d="M1209,387L1149,266L1126,398Z" fill="#d7d7d7" stroke="#d7d7d7" stroke-width="1.51"/><path d="M749,159L691,235L847,298Z" fill="#ececec" stroke="#ececec" stroke-width="1.51"/><path d="M870,661L972,778L972,660Z" fill="#d1d1d1" stroke="#d1d1d1" stroke-width="1.51"/><path d="M972,660L1099,756L1111,634Z" fill="#cbcbcb" stroke="#cbcbcb" stroke-width="1.51"/><path d="M745,629L810,759L870,661Z" fill="#dcdcdc" stroke="#dcdcdc" stroke-width="1.51"/><path d="M698,789L810,759L745,629Z" fill="#dbdbdb" stroke="#dbdbdb" stroke-width="1.51"/><path d="M758,341L547,363L627,497Z" fill="#f4f4f4" stroke="#f4f4f4" stroke-width="1.51"/><path d="M847,298L691,235L758,341Z" fill="#efefef" stroke="#efefef" stroke-width="1.51"/><path d="M888,136L847,298L1012,285Z" fill="#e2e2e2" stroke="#e2e2e2" stroke-width="1.51"/><path d="M810,759L972,778L870,661Z" fill="#d2d2d2" stroke="#d2d2d2" stroke-width="1.51"/><path d="M941,99L888,136L1012,285Z" fill="#dddddd" stroke="#dddddd" stroke-width="1.51"/><path d="M1111,634L1198,634L1099,555Z" fill="#cdcdcd" stroke="#cdcdcd" stroke-width="1.51"/><path d="M1099,756L1198,634L1111,634Z" fill="#c7c7c7" stroke="#c7c7c7" stroke-width="1.51"/><path d="M888,136L749,159L847,298Z" fill="#e6e6e6" stroke="#e6e6e6" stroke-width="1.51"/><path d="M972,778L1099,756L972,660Z" fill="#c9c9c9" stroke="#c9c9c9" stroke-width="1.51"/><path d="M1198,634L1255,554L1099,555Z" fill="#cdcdcd" stroke="#cdcdcd" stroke-width="1.51"/><path d="M1082,117L941,99L1012,285Z" fill="#d8d8d8" stroke="#d8d8d8" stroke-width="1.51"/><path d="M1209,387L1234,297L1149,266Z" fill="#d3d3d3" stroke="#d3d3d3" stroke-width="1.51"/><path d="M1357,403L1234,297L1209,387Z" fill="#d1d1d1" stroke="#d1d1d1" stroke-width="1.51"/><path d="M1082,117L1012,285L1149,266Z" fill="#d6d6d6" stroke="#d6d6d6" stroke-width="1.51"/><path d="M888,136L884,5L749,159Z" fill="#e1e1e1" stroke="#e1e1e1" stroke-width="1.51"/><path d="M627,497L619,665L696,522Z" fill="#ececec" stroke="#ececec" stroke-width="1.51"/><path d="M1235,121L1082,117L1149,266Z" fill="#cfcfcf" stroke="#cfcfcf" stroke-width="1.51"/><path d="M691,235L547,363L758,341Z" fill="#f1f1f1" stroke="#f1f1f1" stroke-width="1.51"/><path d="M627,497L481,485L619,665Z" fill="#eaeaea" stroke="#eaeaea" stroke-width="1.51"/><path d="M563,231L547,363L691,235Z" fill="#ededed" stroke="#ededed" stroke-width="1.51"/><path d="M619,665L698,789L745,629Z" fill="#dfdfdf" stroke="#dfdfdf" stroke-width="1.51"/><path d="M851,943L1010,876L972,778Z" fill="#c1c1c1" stroke="#c1c1c1" stroke-width="1.51"/><path d="M590,130L563,231L691,235Z" fill="#eaeaea" stroke="#eaeaea" stroke-width="1.51"/><path d="M972,778L1010,876L1099,756Z" fill="#c1c1c1" stroke="#c1c1c1" stroke-width="1.51"/><path d="M1099,756L1276,764L1198,634Z" fill="#bfbfbf" stroke="#bfbfbf" stroke-width="1.51"/><path d="M851,943L972,778L810,759Z" fill="#c9c9c9" stroke="#c9c9c9" stroke-width="1.51"/><path d="M547,363L481,485L627,497Z" fill="#f4f4f4" stroke="#f4f4f4" stroke-width="1.51"/><path d="M619,665L546,730L698,789Z" fill="#dadada" stroke="#dadada" stroke-width="1.51"/><path d="M438,408L481,485L547,363Z" fill="#f0f0f0" stroke="#f0f0f0" stroke-width="1.51"/><path d="M1255,554L1357,403L1209,387Z" fill="#d4d4d4" stroke="#d4d4d4" stroke-width="1.51"/><path d="M1234,297L1235,121L1149,266Z" fill="#cfcfcf" stroke="#cfcfcf" stroke-width="1.51"/><path d="M941,99L884,5L888,136Z" fill="#dcdcdc" stroke="#dcdcdc" stroke-width="1.51"/><path d="M749,159L590,130L691,235Z" fill="#ebebeb" stroke="#ebebeb" stroke-width="1.51"/><path d="M984,-20L884,5L941,99Z" fill="#d7d7d7" stroke="#d7d7d7" stroke-width="1.51"/><path d="M698,789L753,884L810,759Z" fill="#d3d3d3" stroke="#d3d3d3" stroke-width="1.51"/><path d="M561,898L753,884L698,789Z" fill="#cfcfcf" stroke="#cfcfcf" stroke-width="1.51"/><path d="M448,637L546,730L619,665Z" fill="#dddddd" stroke="#dddddd" stroke-width="1.51"/><path d="M1082,117L984,-20L941,99Z" fill="#d4d4d4" stroke="#d4d4d4" stroke-width="1.51"/><path d="M1402,242L1235,121L1234,297Z" fill="#c9c9c9" stroke="#c9c9c9" stroke-width="1.51"/><path d="M449,218L438,408L547,363Z" fill="#ececec" stroke="#ececec" stroke-width="1.51"/><path d="M704,-4L590,130L749,159Z" fill="#e8e8e8" stroke="#e8e8e8" stroke-width="1.51"/><path d="M1255,554L1405,497L1357,403Z" fill="#cccccc" stroke="#cccccc" stroke-width="1.51"/><path d="M1198,634L1342,684L1255,554Z" fill="#c4c4c4" stroke="#c4c4c4" stroke-width="1.51"/><path d="M1213,889L1276,764L1099,756Z" fill="#b7b7b7" stroke="#b7b7b7" stroke-width="1.51"/><path d="M1276,764L1342,684L1198,634Z" fill="#bdbdbd" stroke="#bdbdbd" stroke-width="1.51"/><path d="M1085,-7L984,-20L1082,117Z" fill="#d0d0d0" stroke="#d0d0d0" stroke-width="1.51"/><path d="M449,218L547,363L563,231Z" fill="#ebebeb" stroke="#ebebeb" stroke-width="1.51"/><path d="M481,485L448,637L619,665Z" fill="#e4e4e4" stroke="#e4e4e4" stroke-width="1.51"/><path d="M1357,403L1402,242L1234,297Z" fill="#cacaca" stroke="#cacaca" stroke-width="1.51"/><path d="M1342,684L1405,497L1255,554Z" fill="#c4c4c4" stroke="#c4c4c4" stroke-width="1.51"/><path d="M753,884L851,943L810,759Z" fill="#cacaca" stroke="#cacaca" stroke-width="1.51"/><path d="M1010,876L1078,937L1099,756Z" fill="#bababa" stroke="#bababa" stroke-width="1.51"/><path d="M1253,31L1085,-7L1082,117Z" fill="#cbcbcb" stroke="#cbcbcb" stroke-width="1.51"/><path d="M975,1064L1078,937L1010,876Z" fill="#b3b3b3" stroke="#b3b3b3" stroke-width="1.51"/><path d="M318,617L448,637L300,522Z" fill="#e0e0e0" stroke="#e0e0e0" stroke-width="1.51"/><path d="M879,-121L704,-4L884,5Z" fill="#dcdcdc" stroke="#dcdcdc" stroke-width="1.51"/><path d="M884,5L704,-4L749,159Z" fill="#e3e3e3" stroke="#e3e3e3" stroke-width="1.51"/><path d="M546,730L561,898L698,789Z" fill="#d2d2d2" stroke="#d2d2d2" stroke-width="1.51"/><path d="M742,1011L880,1000L851,943Z" fill="#bebebe" stroke="#bebebe" stroke-width="1.51"/><path d="M448,637L496,755L546,730Z" fill="#d8d8d8" stroke="#d8d8d8" stroke-width="1.51"/><path d="M1078,937L1213,889L1099,756Z" fill="#b6b6b6" stroke="#b6b6b6" stroke-width="1.51"/><path d="M1276,764L1393,740L1342,684Z" fill="#b5b5b5" stroke="#b5b5b5" stroke-width="1.51"/><path d="M590,130L484,161L563,231Z" fill="#e7e7e7" stroke="#e7e7e7" stroke-width="1.51"/><path d="M473,24L484,161L590,130Z" fill="#e3e3e3" stroke="#e3e3e3" stroke-width="1.51"/><path d="M484,161L449,218L563,231Z" fill="#e7e7e7" stroke="#e7e7e7" stroke-width="1.51"/><path d="M1454,396L1402,242L1357,403Z" fill="#c7c7c7" stroke="#c7c7c7" stroke-width="1.51"/><path d="M1235,121L1253,31L1082,117Z" fill="#c9c9c9" stroke="#c9c9c9" stroke-width="1.51"/><path d="M1405,497L1454,396L1357,403Z" fill="#cbcbcb" stroke="#cbcbcb" stroke-width="1.51"/><path d="M1531,513L1454,396L1405,497Z" fill="#c6c6c6" stroke="#c6c6c6" stroke-width="1.51"/><path d="M851,943L880,1000L1010,876Z" fill="#bcbcbc" stroke="#bcbcbc" stroke-width="1.51"/><path d="M742,1011L851,943L753,884Z" fill="#c4c4c4" stroke="#c4c4c4" stroke-width="1.51"/><path d="M1335,90L1253,31L1235,121Z" fill="#c4c4c4" stroke="#c4c4c4" stroke-width="1.51"/><path d="M1342,684L1500,628L1405,497Z" fill="#bcbcbc" stroke="#bcbcbc" stroke-width="1.51"/><path d="M1366,890L1393,740L1276,764Z" fill="#adadad" stroke="#adadad" stroke-width="1.51"/><path d="M1402,242L1335,90L1235,121Z" fill="#c4c4c4" stroke="#c4c4c4" stroke-width="1.51"/><path d="M496,755L561,898L546,730Z" fill="#d1d1d1" stroke="#d1d1d1" stroke-width="1.51"/><path d="M984,-20L879,-121L884,5Z" fill="#d5d5d5" stroke="#d5d5d5" stroke-width="1.51"/><path d="M1085,-7L1070,-91L984,-20Z" fill="#cdcdcd" stroke="#cdcdcd" stroke-width="1.51"/><path d="M1206,-139L1070,-91L1085,-7Z" fill="#c6c6c6" stroke="#c6c6c6" stroke-width="1.51"/><path d="M603,1022L742,1011L753,884Z" fill="#c5c5c5" stroke="#c5c5c5" stroke-width="1.51"/><path d="M939,-162L879,-121L984,-20Z" fill="#d1d1d1" stroke="#d1d1d1" stroke-width="1.51"/><path d="M322,217L319,347L449,218Z" fill="#e5e5e5" stroke="#e5e5e5" stroke-width="1.51"/><path d="M704,-4L598,-45L590,130Z" fill="#e3e3e3" stroke="#e3e3e3" stroke-width="1.51"/><path d="M621,-122L598,-45L704,-4Z" fill="#dfdfdf" stroke="#dfdfdf" stroke-width="1.51"/><path d="M1393,740L1500,628L1342,684Z" fill="#b4b4b4" stroke="#b4b4b4" stroke-width="1.51"/><path d="M880,1000L975,1064L1010,876Z" fill="#b5b5b5" stroke="#b5b5b5" stroke-width="1.51"/><path d="M1078,937L1237,1023L1213,889Z" fill="#aaaaaa" stroke="#aaaaaa" stroke-width="1.51"/><path d="M742,1011L975,1064L880,1000Z" fill="#b6b6b6" stroke="#b6b6b6" stroke-width="1.51"/><path d="M561,898L603,1022L753,884Z" fill="#c7c7c7" stroke="#c7c7c7" stroke-width="1.51"/><path d="M496,755L491,893L561,898Z" fill="#cbcbcb" stroke="#cbcbcb" stroke-width="1.51"/><path d="M299,745L491,893L496,755Z" fill="#cecece" stroke="#cecece" stroke-width="1.51"/><path d="M300,522L448,637L481,485Z" fill="#e5e5e5" stroke="#e5e5e5" stroke-width="1.51"/><path d="M448,637L299,745L496,755Z" fill="#d5d5d5" stroke="#d5d5d5" stroke-width="1.51"/><path d="M449,218L319,347L438,408Z" fill="#eaeaea" stroke="#eaeaea" stroke-width="1.51"/><path d="M322,217L449,218L341,128Z" fill="#e2e2e2" stroke="#e2e2e2" stroke-width="1.51"/><path d="M1454,396L1513,297L1402,242Z" fill="#c2c2c2" stroke="#c2c2c2" stroke-width="1.51"/><path d="M1402,242L1460,112L1335,90Z" fill="#bfbfbf" stroke="#bfbfbf" stroke-width="1.51"/><path d="M1500,628L1531,513L1405,497Z" fill="#bebebe" stroke="#bebebe" stroke-width="1.51"/><path d="M1629,346L1513,297L1454,396Z" fill="#bfbfbf" stroke="#bfbfbf" stroke-width="1.51"/><path d="M1213,889L1366,890L1276,764Z" fill="#adadad" stroke="#adadad" stroke-width="1.51"/><path d="M1393,740L1487,804L1500,628Z" fill="#aeaeae" stroke="#aeaeae" stroke-width="1.51"/><path d="M1237,1023L1366,890L1213,889Z" fill="#a6a6a6" stroke="#a6a6a6" stroke-width="1.51"/><path d="M879,-121L737,-152L704,-4Z" fill="#dddddd" stroke="#dddddd" stroke-width="1.51"/><path d="M1070,-91L939,-162L984,-20Z" fill="#cecece" stroke="#cecece" stroke-width="1.51"/><path d="M300,522L481,485L438,408Z" fill="#ededed" stroke="#ededed" stroke-width="1.51"/><path d="M319,347L300,522L438,408Z" fill="#ededed" stroke="#ededed" stroke-width="1.51"/><path d="M598,-45L473,24L590,130Z" fill="#e1e1e1" stroke="#e1e1e1" stroke-width="1.51"/><path d="M975,1064L1073,1068L1078,937Z" fill="#acacac" stroke="#acacac" stroke-width="1.51"/><path d="M1253,31L1206,-139L1085,-7Z" fill="#c4c4c4" stroke="#c4c4c4" stroke-width="1.51"/><path d="M1070,-91L1206,-139L939,-162Z" fill="#c7c7c7" stroke="#c7c7c7" stroke-width="1.51"/><path d="M1335,90L1324,-33L1253,31Z" fill="#c0c0c0" stroke="#c0c0c0" stroke-width="1.51"/><path d="M1460,112L1324,-33L1335,90Z" fill="#bcbcbc" stroke="#bcbcbc" stroke-width="1.51"/><path d="M939,-162L737,-152L879,-121Z" fill="#d5d5d5" stroke="#d5d5d5" stroke-width="1.51"/><path d="M598,-45L487,-145L473,24Z" fill="#dcdcdc" stroke="#dcdcdc" stroke-width="1.51"/><path d="M1513,297L1460,112L1402,242Z" fill="#bebebe" stroke="#bebebe" stroke-width="1.51"/><path d="M319,347L216,360L300,522Z" fill="#e9e9e9" stroke="#e9e9e9" stroke-width="1.51"/><path d="M341,128L449,218L484,161Z" fill="#e3e3e3" stroke="#e3e3e3" stroke-width="1.51"/><path d="M742,1011L603,1022L975,1064Z" fill="#bcbcbc" stroke="#bcbcbc" stroke-width="1.51"/><path d="M491,893L603,1022L561,898Z" fill="#c4c4c4" stroke="#c4c4c4" stroke-width="1.51"/><path d="M1073,1068L1237,1023L1078,937Z" fill="#a8a8a8" stroke="#a8a8a8" stroke-width="1.51"/><path d="M737,-152L621,-122L704,-4Z" fill="#dfdfdf" stroke="#dfdfdf" stroke-width="1.51"/><path d="M1324,-33L1206,-139L1253,31Z" fill="#bfbfbf" stroke="#bfbfbf" stroke-width="1.51"/><path d="M1624,674L1628,506L1531,513Z" fill="#b4b4b4" stroke="#b4b4b4" stroke-width="1.51"/><path d="M1366,890L1487,804L1393,740Z" fill="#a8a8a8" stroke="#a8a8a8" stroke-width="1.51"/><path d="M1584,776L1487,804L1536,882Z" fill="#a0a0a0" stroke="#a0a0a0" stroke-width="1.51"/><path d="M473,24L341,128L484,161Z" fill="#e1e1e1" stroke="#e1e1e1" stroke-width="1.51"/><path d="M354,-38L341,128L473,24Z" fill="#dcdcdc" stroke="#dcdcdc" stroke-width="1.51"/><path d="M491,893L425,1011L603,1022Z" fill="#bfbfbf" stroke="#bfbfbf" stroke-width="1.51"/><path d="M318,617L299,745L448,637Z" fill="#d8d8d8" stroke="#d8d8d8" stroke-width="1.51"/><path d="M174,684L299,745L318,617Z" fill="#d4d4d4" stroke="#d4d4d4" stroke-width="1.51"/><path d="M1513,297L1590,233L1460,112Z" fill="#bababa" stroke="#bababa" stroke-width="1.51"/><path d="M1536,-34L1409,-151L1324,-33Z" fill="#b4b4b4" stroke="#b4b4b4" stroke-width="1.51"/><path d="M1629,346L1590,233L1513,297Z" fill="#bababa" stroke="#bababa" stroke-width="1.51"/><path d="M1629,346L1454,396L1531,513Z" fill="#c2c2c2" stroke="#c2c2c2" stroke-width="1.51"/><path d="M1624,674L1531,513L1500,628Z" fill="#b3b3b3" stroke="#b3b3b3" stroke-width="1.51"/><path d="M217,279L216,360L319,347Z" fill="#e5e5e5" stroke="#e5e5e5" stroke-width="1.51"/><path d="M300,522L215,557L318,617Z" fill="#e0e0e0" stroke="#e0e0e0" stroke-width="1.51"/><path d="M217,279L319,347L322,217Z" fill="#e4e4e4" stroke="#e4e4e4" stroke-width="1.51"/><path d="M216,360L215,557L300,522Z" fill="#e7e7e7" stroke="#e7e7e7" stroke-width="1.51"/><path d="M1628,506L1629,346L1531,513Z" fill="#bfbfbf" stroke="#bfbfbf" stroke-width="1.51"/><path d="M159,117L217,279L322,217Z" fill="#dfdfdf" stroke="#dfdfdf" stroke-width="1.51"/><path d="M1487,804L1584,776L1500,628Z" fill="#a8a8a8" stroke="#a8a8a8" stroke-width="1.51"/><path d="M1536,882L1487,804L1366,890Z" fill="#a1a1a1" stroke="#a1a1a1" stroke-width="1.51"/><path d="M1584,776L1624,674L1500,628Z" fill="#aaaaaa" stroke="#aaaaaa" stroke-width="1.51"/><path d="M295,899L425,1011L491,893Z" fill="#c0c0c0" stroke="#c0c0c0" stroke-width="1.51"/><path d="M603,1022L353,1034L975,1064Z" fill="#bcbcbc" stroke="#bcbcbc" stroke-width="1.51"/><path d="M341,128L159,117L322,217Z" fill="#dedede" stroke="#dedede" stroke-width="1.51"/><path d="M621,-122L487,-145L598,-45Z" fill="#dbdbdb" stroke="#dbdbdb" stroke-width="1.51"/><path d="M737,-152L487,-145L621,-122Z" fill="#dbdbdb" stroke="#dbdbdb" stroke-width="1.51"/><path d="M344,-170L487,-145L737,-152Z" fill="#d8d8d8" stroke="#d8d8d8" stroke-width="1.51"/><path d="M1237,1023L1386,1043L1366,890Z" fill="#9d9d9d" stroke="#9d9d9d" stroke-width="1.51"/><path d="M1073,1068L1386,1043L1237,1023Z" fill="#9e9e9e" stroke="#9e9e9e" stroke-width="1.51"/><path d="M1470,1061L1536,882L1366,890Z" fill="#999999" stroke="#999999" stroke-width="1.51"/><path d="M487,-145L354,-38L473,24Z" fill="#dadada" stroke="#dadada" stroke-width="1.51"/><path d="M299,745L295,899L491,893Z" fill="#c7c7c7" stroke="#c7c7c7" stroke-width="1.51"/><path d="M169,739L295,899L299,745Z" fill="#c9c9c9" stroke="#c9c9c9" stroke-width="1.51"/><path d="M215,557L174,684L318,617Z" fill="#d9d9d9" stroke="#d9d9d9" stroke-width="1.51"/><path d="M99,555L174,684L215,557Z" fill="#d9d9d9" stroke="#d9d9d9" stroke-width="1.51"/><path d="M97,394L215,557L216,360Z" fill="#e8e8e8" stroke="#e8e8e8" stroke-width="1.51"/><path d="M1324,-33L1409,-151L1206,-139Z" fill="#b9b9b9" stroke="#b9b9b9" stroke-width="1.51"/><path d="M1206,-139L1482,-167L939,-162Z" fill="#bebebe" stroke="#bebebe" stroke-width="1.51"/><path d="M1536,-34L1324,-33L1460,112Z" fill="#b7b7b7" stroke="#b7b7b7" stroke-width="1.51"/><path d="M1598,-15L1536,-34L1460,112Z" fill="#b0b0b0" stroke="#b0b0b0" stroke-width="1.51"/><path d="M1668,160L1460,112L1590,233Z" fill="#b4b4b4" stroke="#b4b4b4" stroke-width="1.51"/><path d="M174,684L169,739L299,745Z" fill="#cecece" stroke="#cecece" stroke-width="1.51"/><path d="M1728,355L1629,346L1628,506Z" fill="#b9b9b9" stroke="#b9b9b9" stroke-width="1.51"/><path d="M1746,239L1590,233L1629,346Z" fill="#b4b4b4" stroke="#b4b4b4" stroke-width="1.51"/><path d="M1746,239L1668,160L1590,233Z" fill="#b0b0b0" stroke="#b0b0b0" stroke-width="1.51"/><path d="M295,899L353,1034L425,1011Z" fill="#bababa" stroke="#bababa" stroke-width="1.51"/><path d="M425,1011L353,1034L603,1022Z" fill="#b9b9b9" stroke="#b9b9b9" stroke-width="1.51"/><path d="M228,990L353,1034L295,899Z" fill="#b8b8b8" stroke="#b8b8b8" stroke-width="1.51"/><path d="M1797,547L1728,355L1628,506Z" fill="#b7b7b7" stroke="#b7b7b7" stroke-width="1.51"/><path d="M1386,1043L1470,1061L1366,890Z" fill="#979797" stroke="#979797" stroke-width="1.51"/><path d="M1756,736L1624,674L1584,776Z" fill="#a1a1a1" stroke="#a1a1a1" stroke-width="1.51"/><path d="M1073,1068L1470,1061L1386,1043Z" fill="#989898" stroke="#989898" stroke-width="1.51"/><path d="M79,285L97,394L216,360Z" fill="#e2e2e2" stroke="#e2e2e2" stroke-width="1.51"/><path d="M174,684L58,678L169,739Z" fill="#cecece" stroke="#cecece" stroke-width="1.51"/><path d="M79,285L216,360L217,279Z" fill="#e2e2e2" stroke="#e2e2e2" stroke-width="1.51"/><path d="M97,394L99,555L215,557Z" fill="#e2e2e2" stroke="#e2e2e2" stroke-width="1.51"/><path d="M1668,160L1598,-15L1460,112Z" fill="#b1b1b1" stroke="#b1b1b1" stroke-width="1.51"/><path d="M1536,-34L1482,-167L1409,-151Z" fill="#aeaeae" stroke="#aeaeae" stroke-width="1.51"/><path d="M198,-42L159,117L341,128Z" fill="#d9d9d9" stroke="#d9d9d9" stroke-width="1.51"/><path d="M198,-42L341,128L354,-38Z" fill="#d8d8d8" stroke="#d8d8d8" stroke-width="1.51"/><path d="M1409,-151L1482,-167L1206,-139Z" fill="#b4b4b4" stroke="#b4b4b4" stroke-width="1.51"/><path d="M1631,-111L1482,-167L1536,-34Z" fill="#aaaaaa" stroke="#aaaaaa" stroke-width="1.51"/><path d="M487,-145L344,-170L354,-38Z" fill="#d5d5d5" stroke="#d5d5d5" stroke-width="1.51"/><path d="M939,-162L344,-170L737,-152Z" fill="#dcdcdc" stroke="#dcdcdc" stroke-width="1.51"/><path d="M1482,-167L344,-170L939,-162Z" fill="#d0d0d0" stroke="#d0d0d0" stroke-width="1.51"/><path d="M1728,355L1746,239L1629,346Z" fill="#b3b3b3" stroke="#b3b3b3" stroke-width="1.51"/><path d="M1668,160L1716,100L1598,-15Z" fill="#ababab" stroke="#ababab" stroke-width="1.51"/><path d="M1624,674L1755,654L1628,506Z" fill="#ababab" stroke="#ababab" stroke-width="1.51"/><path d="M1728,355L1797,547L1746,239Z" fill="#b6b6b6" stroke="#b6b6b6" stroke-width="1.51"/><path d="M1756,736L1755,654L1624,674Z" fill="#a3a3a3" stroke="#a3a3a3" stroke-width="1.51"/><path d="M1646,930L1584,776L1536,882Z" fill="#989898" stroke="#989898" stroke-width="1.51"/><path d="M-15,656L58,678L99,555Z" fill="#d3d3d3" stroke="#d3d3d3" stroke-width="1.51"/><path d="M159,117L79,285L217,279Z" fill="#dedede" stroke="#dedede" stroke-width="1.51"/><path d="M1658,1005L1646,930L1536,882Z" fill="#909090" stroke="#909090" stroke-width="1.51"/><path d="M166,912L295,899L169,739Z" fill="#c2c2c2" stroke="#c2c2c2" stroke-width="1.51"/><path d="M166,912L228,990L295,899Z" fill="#bababa" stroke="#bababa" stroke-width="1.51"/><path d="M1746,239L1716,100L1668,160Z" fill="#adadad" stroke="#adadad" stroke-width="1.51"/><path d="M1598,-15L1631,-111L1536,-34Z" fill="#aaaaaa" stroke="#aaaaaa" stroke-width="1.51"/><path d="M-78,230L-18,412L79,285Z" fill="#dcdcdc" stroke="#dcdcdc" stroke-width="1.51"/><path d="M224,-91L198,-42L354,-38Z" fill="#d4d4d4" stroke="#d4d4d4" stroke-width="1.51"/><path d="M108,868L166,912L169,739Z" fill="#c1c1c1" stroke="#c1c1c1" stroke-width="1.51"/><path d="M1775,875L1756,736L1584,776Z" fill="#999999" stroke="#999999" stroke-width="1.51"/><path d="M1756,736L1797,547L1755,654Z" fill="#a6a6a6" stroke="#a6a6a6" stroke-width="1.51"/><path d="M1755,654L1797,547L1628,506Z" fill="#aeaeae" stroke="#aeaeae" stroke-width="1.51"/><path d="M344,-170L224,-91L354,-38Z" fill="#d4d4d4" stroke="#d4d4d4" stroke-width="1.51"/><path d="M99,555L58,678L174,684Z" fill="#d3d3d3" stroke="#d3d3d3" stroke-width="1.51"/><path d="M-31,513L99,555L97,394Z" fill="#e1e1e1" stroke="#e1e1e1" stroke-width="1.51"/><path d="M166,912L64,1060L228,990Z" fill="#b3b3b3" stroke="#b3b3b3" stroke-width="1.51"/><path d="M44,740L108,868L169,739Z" fill="#c5c5c5" stroke="#c5c5c5" stroke-width="1.51"/><path d="M1766,1L1631,-111L1598,-15Z" fill="#a6a6a6" stroke="#a6a6a6" stroke-width="1.51"/><path d="M1470,1061L1658,1005L1536,882Z" fill="#909090" stroke="#909090" stroke-width="1.51"/><path d="M1646,930L1775,875L1584,776Z" fill="#949494" stroke="#949494" stroke-width="1.51"/><path d="M58,678L44,740L169,739Z" fill="#cbcbcb" stroke="#cbcbcb" stroke-width="1.51"/><path d="M-15,656L44,740L58,678Z" fill="#cccccc" stroke="#cccccc" stroke-width="1.51"/><path d="M79,285L-18,412L97,394Z" fill="#e1e1e1" stroke="#e1e1e1" stroke-width="1.51"/><path d="M33,104L79,285L159,117Z" fill="#d9d9d9" stroke="#d9d9d9" stroke-width="1.51"/><path d="M198,-42L82,27L159,117Z" fill="#d4d4d4" stroke="#d4d4d4" stroke-width="1.51"/><path d="M41,-143L82,27L198,-42Z" fill="#d0d0d0" stroke="#d0d0d0" stroke-width="1.51"/><path d="M1658,1005L1775,875L1646,930Z" fill="#8b8b8b" stroke="#8b8b8b" stroke-width="1.51"/><path d="M1756,736L1775,875L1797,547Z" fill="#a0a0a0" stroke="#a0a0a0" stroke-width="1.51"/><path d="M-18,412L-31,513L97,394Z" fill="#e3e3e3" stroke="#e3e3e3" stroke-width="1.51"/><path d="M82,27L33,104L159,117Z" fill="#d5d5d5" stroke="#d5d5d5" stroke-width="1.51"/><path d="M-31,513L-15,656L99,555Z" fill="#d7d7d7" stroke="#d7d7d7" stroke-width="1.51"/><path d="M44,740L-27,879L108,868Z" fill="#bfbfbf" stroke="#bfbfbf" stroke-width="1.51"/><path d="M1716,100L1766,1L1598,-15Z" fill="#a7a7a7" stroke="#a7a7a7" stroke-width="1.51"/><path d="M1746,239L1766,1L1716,100Z" fill="#ababab" stroke="#ababab" stroke-width="1.51"/><path d="M1797,547L1766,1L1746,239Z" fill="#b1b1b1" stroke="#b1b1b1" stroke-width="1.51"/><path d="M1658,1005L1735,1065L1775,875Z" fill="#878787" stroke="#878787" stroke-width="1.51"/><path d="M1470,1061L1735,1065L1658,1005Z" fill="#868686" stroke="#868686" stroke-width="1.51"/><path d="M1073,1068L1735,1065L1470,1061Z" fill="#909090" stroke="#909090" stroke-width="1.51"/><path d="M-54,140L-78,230L79,285Z" fill="#d8d8d8" stroke="#d8d8d8" stroke-width="1.51"/><path d="M-18,412L-182,523L-31,513Z" fill="#dddddd" stroke="#dddddd" stroke-width="1.51"/><path d="M-74,758L44,740L-15,656Z" fill="#c8c8c8" stroke="#c8c8c8" stroke-width="1.51"/><path d="M-54,140L79,285L33,104Z" fill="#d7d7d7" stroke="#d7d7d7" stroke-width="1.51"/><path d="M-95,21L33,104L82,27Z" fill="#d1d1d1" stroke="#d1d1d1" stroke-width="1.51"/><path d="M-95,21L-54,140L33,104Z" fill="#d1d1d1" stroke="#d1d1d1" stroke-width="1.51"/><path d="M1766,1L1783,-99L1631,-111Z" fill="#a3a3a3" stroke="#a3a3a3" stroke-width="1.51"/><path d="M1631,-111L1783,-99L1482,-167Z" fill="#a4a4a4" stroke="#a4a4a4" stroke-width="1.51"/><path d="M1797,547L1783,-99L1766,1Z" fill="#acacac" stroke="#acacac" stroke-width="1.51"/><path d="M-74,758L-15,656L-174,603Z" fill="#cbcbcb" stroke="#cbcbcb" stroke-width="1.51"/><path d="M-74,758L-27,879L44,740Z" fill="#c1c1c1" stroke="#c1c1c1" stroke-width="1.51"/><path d="M108,868L64,1060L166,912Z" fill="#b6b6b6" stroke="#b6b6b6" stroke-width="1.51"/><path d="M-174,603L-15,656L-31,513Z" fill="#d3d3d3" stroke="#d3d3d3" stroke-width="1.51"/><path d="M-27,879L64,1060L108,868Z" fill="#b6b6b6" stroke="#b6b6b6" stroke-width="1.51"/><path d="M228,990L64,1060L353,1034Z" fill="#b2b2b2" stroke="#b2b2b2" stroke-width="1.51"/><path d="M353,1034L64,1060L975,1064Z" fill="#b6b6b6" stroke="#b6b6b6" stroke-width="1.51"/><path d="M975,1064L64,1060L1073,1068Z" fill="#bcbcbc" stroke="#bcbcbc" stroke-width="1.51"/><path d="M224,-91L41,-143L198,-42Z" fill="#cfcfcf" stroke="#cfcfcf" stroke-width="1.51"/><path d="M344,-170L41,-143L224,-91Z" fill="#cfcfcf" stroke="#cfcfcf" stroke-width="1.51"/><path d="M-78,230L-167,290L-18,412Z" fill="#dadada" stroke="#dadada" stroke-width="1.51"/><path d="M-153,127L-167,290L-78,230Z" fill="#d5d5d5" stroke="#d5d5d5" stroke-width="1.51"/><path d="M-153,127L-78,230L-54,140Z" fill="#d3d3d3" stroke="#d3d3d3" stroke-width="1.51"/><path d="M-27,879L-73,1025L64,1060Z" fill="#afafaf" stroke="#afafaf" stroke-width="1.51"/><path d="M-192,1015L-73,1025L-27,879Z" fill="#aeaeae" stroke="#aeaeae" stroke-width="1.51"/><path d="M-182,523L-174,603L-31,513Z" fill="#d6d6d6" stroke="#d6d6d6" stroke-width="1.51"/><path d="M-208,341L-182,523L-18,412Z" fill="#dedede" stroke="#dedede" stroke-width="1.51"/><path d="M41,-143L-95,21L82,27Z" fill="#cecece" stroke="#cecece" stroke-width="1.51"/><path d="M-95,21L-153,127L-54,140Z" fill="#d0d0d0" stroke="#d0d0d0" stroke-width="1.51"/><path d="M-153,127L-208,341L-167,290Z" fill="#d5d5d5" stroke="#d5d5d5" stroke-width="1.51"/><path d="M-167,290L-208,341L-18,412Z" fill="#dbdbdb" stroke="#dbdbdb" stroke-width="1.51"/><path d="M-217,863L-193,799L-174,603Z" fill="#bfbfbf" stroke="#bfbfbf" stroke-width="1.51"/><path d="M-193,799L-27,879L-74,758Z" fill="#bdbdbd" stroke="#bdbdbd" stroke-width="1.51"/><path d="M-174,603L-193,799L-74,758Z" fill="#c4c4c4" stroke="#c4c4c4" stroke-width="1.51"/><path d="M-217,863L-174,603L-182,523Z" fill="#c9c9c9" stroke="#c9c9c9" stroke-width="1.51"/><path d="M41,-143L-88,-146L-95,21Z" fill="#cacaca" stroke="#cacaca" stroke-width="1.51"/><path d="M-95,21L-189,9L-153,127Z" fill="#cdcdcd" stroke="#cdcdcd" stroke-width="1.51"/><path d="M-153,127L-189,9L-208,341Z" fill="#d1d1d1" stroke="#d1d1d1" stroke-width="1.51"/><path d="M-192,-169L-88,-146L41,-143Z" fill="#c6c6c6" stroke="#c6c6c6" stroke-width="1.51"/><path d="M-88,-146L-189,9L-95,21Z" fill="#c9c9c9" stroke="#c9c9c9" stroke-width="1.51"/><path d="M-193,799L-217,863L-27,879Z" fill="#b8b8b8" stroke="#b8b8b8" stroke-width="1.51"/><path d="M-208,341L-217,863L-182,523Z" fill="#d1d1d1" stroke="#d1d1d1" stroke-width="1.51"/><path d="M-73,1025L-192,1015L64,1060Z" fill="#a9a9a9" stroke="#a9a9a9" stroke-width="1.51"/><path d="M-217,863L-192,1015L-27,879Z" fill="#b1b1b1" stroke="#b1b1b1" stroke-width="1.51"/><path d="M-88,-146L-192,-169L-189,9Z" fill="#c6c6c6" stroke="#c6c6c6" stroke-width="1.51"/><path d="M-189,9L-192,-169L-208,341Z" fill="#cccccc" stroke="#cccccc" stroke-width="1.51"/><path d="M344,-170L-192,-169L41,-143Z" fill="#cacaca" stroke="#cacaca" stroke-width="1.51"/></svg>