<svg xmlns="http://www.w3.org/2000/svg" width="1440" height="900"><path d="M661,400L796,275L645,249Z" fill="#ececec" stroke="#ececec" stroke-width="1.51"/><path d="M796,275L686,122L645,249Z" fill="#ededed" stroke="#ededed" stroke-width="1.51"/><path d="M661,400L814,488L796,275Z" fill="#eaeaea" stroke="#eaeaea" stroke-width="1.51"/><path d="M796,275L832,130L686,122Z" fill="#ececec" stroke="#ececec" stroke-width="1.51"/><path d="M984,283L832,130L796,275Z" fill="#e9e9e9" stroke="#e9e9e9" stroke-width="1.51"/><path d="M645,249L486,268L661,400Z" fill="#ededed" stroke="#ededed" stroke-width="1.51"/><path d="M448,134L486,268L645,249Z" fill="#efefef" stroke="#efefef" stroke-width="1.51"/><path d="M814,488L932,435L796,275Z" fill="#e7e7e7" stroke="#e7e7e7" stroke-width="1.51"/><path d="M932,435L984,283L796,275Z" fill="#e6e6e6" stroke="#e6e6e6" stroke-width="1.51"/><path d="M486,268L432,419L661,400Z" fill="#ededed" stroke="#ededed" stroke-width="1.51"/><path d="M661,400L650,610L814,488Z" fill="#e8e8e8" stroke="#e8e8e8" stroke-width="1.51"/><path d="M476,597L650,610L661,400Z" fill="#e8e8e8" stroke="#e8e8e8" stroke-width="1.51"/><path d="M814,488L967,586L932,435Z" fill="#e3e3e3" stroke="#e3e3e3" stroke-width="1.51"/><path d="M686,122L448,134L645,249Z" fill="#efefef" stroke="#efefef" stroke-width="1.51"/><path d="M486,268L304,253L432,419Z" fill="#efefef" stroke="#efefef" stroke-width="1.51"/><path d="M650,610L832,639L814,488Z" fill="#e4e4e4" stroke="#e4e4e4" stroke-width="1.51"/><path d="M686,122L658,-21L448,134Z" fill="#f0f0f0" stroke="#f0f0f0" stroke-width="1.51"/><path d="M765,-57L658,-21L686,122Z" fill="#f0f0f0" stroke="#f0f0f0" stroke-width="1.51"/><path d="M984,283L1015,141L832,130Z" fill="#e7e7e7" stroke="#e7e7e7" stroke-width="1.51"/><path d="M832,130L765,-57L686,122Z" fill="#eeeeee" stroke="#eeeeee" stroke-width="1.51"/><path d="M432,419L476,597L661,400Z" fill="#ebebeb" stroke="#ebebeb" stroke-width="1.51"/><path d="M650,610L754,801L832,639Z" fill="#e1e1e1" stroke="#e1e1e1" stroke-width="1.51"/><path d="M1143,419L1142,319L984,283Z" fill="#e2e2e2" stroke="#e2e2e2" stroke-width="1.51"/><path d="M984,283L1142,319L1015,141Z" fill="#e4e4e4" stroke="#e4e4e4" stroke-width="1.51"/><path d="M832,639L967,586L814,488Z" fill="#e2e2e2" stroke="#e2e2e2" stroke-width="1.51"/><path d="M941,-59L765,-57L832,130Z" fill="#ececec" stroke="#ececec" stroke-width="1.51"/><path d="M448,134L304,253L486,268Z" fill="#f0f0f0" stroke="#f0f0f0" stroke-width="1.51"/><path d="M432,419L340,595L476,597Z" fill="#eaeaea" stroke="#eaeaea" stroke-width="1.51"/><path d="M476,597L620,734L650,610Z" fill="#e4e4e4" stroke="#e4e4e4" stroke-width="1.51"/><path d="M961,808L1111,635L967,586Z" fill="#dadada" stroke="#dadada" stroke-width="1.51"/><path d="M1143,419L984,283L932,435Z" fill="#e3e3e3" stroke="#e3e3e3" stroke-width="1.51"/><path d="M1113,-72L941,-59L1015,141Z" fill="#e8e8e8" stroke="#e8e8e8" stroke-width="1.51"/><path d="M1015,141L941,-59L832,130Z" fill="#eaeaea" stroke="#eaeaea" stroke-width="1.51"/><path d="M967,586L1143,419L932,435Z" fill="#e1e1e1" stroke="#e1e1e1" stroke-width="1.51"/><path d="M448,134L265,121L304,253Z" fill="#f2f2f2" stroke="#f2f2f2" stroke-width="1.51"/><path d="M658,-21L496,-75L448,134Z" fill="#f2f2f2" stroke="#f2f2f2" stroke-width="1.51"/><path d="M619,-211L496,-75L658,-21Z" fill="#f3f3f3" stroke="#f3f3f3" stroke-width="1.51"/><path d="M619,-211L658,-21L765,-57Z" fill="#f2f2f2" stroke="#f2f2f2" stroke-width="1.51"/><path d="M476,597L421,742L620,734Z" fill="#e3e3e3" stroke="#e3e3e3" stroke-width="1.51"/><path d="M261,494L340,595L432,419Z" fill="#ececec" stroke="#ececec" stroke-width="1.51"/><path d="M304,253L261,494L432,419Z" fill="#efefef" stroke="#efefef" stroke-width="1.51"/><path d="M1142,319L1170,165L1015,141Z" fill="#e3e3e3" stroke="#e3e3e3" stroke-width="1.51"/><path d="M1281,257L1170,165L1142,319Z" fill="#e0e0e0" stroke="#e0e0e0" stroke-width="1.51"/><path d="M620,734L754,801L650,610Z" fill="#e1e1e1" stroke="#e1e1e1" stroke-width="1.51"/><path d="M967,586L1111,635L1143,419Z" fill="#dddddd" stroke="#dddddd" stroke-width="1.51"/><path d="M623,950L754,801L620,734Z" fill="#dddddd" stroke="#dddddd" stroke-width="1.51"/><path d="M304,253L179,402L261,494Z" fill="#f0f0f0" stroke="#f0f0f0" stroke-width="1.51"/><path d="M282,-32L265,121L448,134Z" fill="#f3f3f3" stroke="#f3f3f3" stroke-width="1.51"/><path d="M961,808L967,586L832,639Z" fill="#dddddd" stroke="#dddddd" stroke-width="1.51"/><path d="M340,595L421,742L476,597Z" fill="#e6e6e6" stroke="#e6e6e6" stroke-width="1.51"/><path d="M278,740L421,742L340,595Z" fill="#e5e5e5" stroke="#e5e5e5" stroke-width="1.51"/><path d="M941,-59L815,-198L765,-57Z" fill="#efefef" stroke="#efefef" stroke-width="1.51"/><path d="M957,-207L815,-198L941,-59Z" fill="#ededed" stroke="#ededed" stroke-width="1.51"/><path d="M815,-198L619,-211L765,-57Z" fill="#f2f2f2" stroke="#f2f2f2" stroke-width="1.51"/><path d="M496,-75L282,-32L448,134Z" fill="#f3f3f3" stroke="#f3f3f3" stroke-width="1.51"/><path d="M155,599L278,740L340,595Z" fill="#e8e8e8" stroke="#e8e8e8" stroke-width="1.51"/><path d="M161,320L179,402L304,253Z" fill="#f1f1f1" stroke="#f1f1f1" stroke-width="1.51"/><path d="M619,-211L513,-184L496,-75Z" fill="#f4f4f4" stroke="#f4f4f4" stroke-width="1.51"/><path d="M265,121L161,320L304,253Z" fill="#f2f2f2" stroke="#f2f2f2" stroke-width="1.51"/><path d="M754,801L961,808L832,639Z" fill="#dcdcdc" stroke="#dcdcdc" stroke-width="1.51"/><path d="M261,-172L282,-32L496,-75Z" fill="#f5f5f5" stroke="#f5f5f5" stroke-width="1.51"/><path d="M265,121L142,72L161,320Z" fill="#f3f3f3" stroke="#f3f3f3" stroke-width="1.51"/><path d="M1170,165L1113,-72L1015,141Z" fill="#e5e5e5" stroke="#e5e5e5" stroke-width="1.51"/><path d="M1268,488L1281,257L1143,419Z" fill="#dedede" stroke="#dedede" stroke-width="1.51"/><path d="M1143,419L1281,257L1142,319Z" fill="#dfdfdf" stroke="#dfdfdf" stroke-width="1.51"/><path d="M1170,165L1264,167L1113,-72Z" fill="#e3e3e3" stroke="#e3e3e3" stroke-width="1.51"/><path d="M1281,257L1264,167L1170,165Z" fill="#e0e0e0" stroke="#e0e0e0" stroke-width="1.51"/><path d="M815,-198L1099,-257L619,-211Z" fill="#f0f0f0" stroke="#f0f0f0" stroke-width="1.51"/><path d="M1113,-72L957,-207L941,-59Z" fill="#eaeaea" stroke="#eaeaea" stroke-width="1.51"/><path d="M1111,635L1268,488L1143,419Z" fill="#dcdcdc" stroke="#dcdcdc" stroke-width="1.51"/><path d="M1300,579L1268,488L1111,635Z" fill="#d9d9d9" stroke="#d9d9d9" stroke-width="1.51"/><path d="M497,980L623,950L620,734Z" fill="#dcdcdc" stroke="#dcdcdc" stroke-width="1.51"/><path d="M155,599L340,595L261,494Z" fill="#ebebeb" stroke="#ebebeb" stroke-width="1.51"/><path d="M167,-11L142,72L265,121Z" fill="#f5f5f5" stroke="#f5f5f5" stroke-width="1.51"/><path d="M179,402L155,599L261,494Z" fill="#eeeeee" stroke="#eeeeee" stroke-width="1.51"/><path d="M-44,421L155,599L179,402Z" fill="#efefef" stroke="#efefef" stroke-width="1.51"/><path d="M-44,421L179,402L161,320Z" fill="#f1f1f1" stroke="#f1f1f1" stroke-width="1.51"/><path d="M961,808L1089,821L1111,635Z" fill="#d7d7d7" stroke="#d7d7d7" stroke-width="1.51"/><path d="M924,972L1089,821L961,808Z" fill="#d4d4d4" stroke="#d4d4d4" stroke-width="1.51"/><path d="M282,-32L167,-11L265,121Z" fill="#f5f5f5" stroke="#f5f5f5" stroke-width="1.51"/><path d="M261,-172L167,-11L282,-32Z" fill="#f6f6f6" stroke="#f6f6f6" stroke-width="1.51"/><path d="M754,801L924,972L961,808Z" fill="#d8d8d8" stroke="#d8d8d8" stroke-width="1.51"/><path d="M497,980L620,734L421,742Z" fill="#dfdfdf" stroke="#dfdfdf" stroke-width="1.51"/><path d="M623,950L754,961L754,801Z" fill="#dadada" stroke="#dadada" stroke-width="1.51"/><path d="M1268,488L1425,250L1281,257Z" fill="#dcdcdc" stroke="#dcdcdc" stroke-width="1.51"/><path d="M1297,773L1300,579L1111,635Z" fill="#d5d5d5" stroke="#d5d5d5" stroke-width="1.51"/><path d="M513,-184L261,-172L496,-75Z" fill="#f5f5f5" stroke="#f5f5f5" stroke-width="1.51"/><path d="M619,-211L261,-172L513,-184Z" fill="#f5f5f5" stroke="#f5f5f5" stroke-width="1.51"/><path d="M754,961L924,972L754,801Z" fill="#d7d7d7" stroke="#d7d7d7" stroke-width="1.51"/><path d="M957,-207L1099,-257L815,-198Z" fill="#ededed" stroke="#ededed" stroke-width="1.51"/><path d="M1113,-72L1099,-257L957,-207Z" fill="#eaeaea" stroke="#eaeaea" stroke-width="1.51"/><path d="M1300,-208L1099,-257L1113,-72Z" fill="#e7e7e7" stroke="#e7e7e7" stroke-width="1.51"/><path d="M754,961L763,1073L924,972Z" fill="#d4d4d4" stroke="#d4d4d4" stroke-width="1.51"/><path d="M641,1091L763,1073L754,961Z" fill="#d5d5d5" stroke="#d5d5d5" stroke-width="1.51"/><path d="M344,983L497,980L421,742Z" fill="#dddddd" stroke="#dddddd" stroke-width="1.51"/><path d="M1281,257L1425,250L1264,167Z" fill="#dddddd" stroke="#dddddd" stroke-width="1.51"/><path d="M1264,167L1327,-94L1113,-72Z" fill="#e3e3e3" stroke="#e3e3e3" stroke-width="1.51"/><path d="M1493,443L1425,250L1268,488Z" fill="#d9d9d9" stroke="#d9d9d9" stroke-width="1.51"/><path d="M10,113L-14,281L161,320Z" fill="#f4f4f4" stroke="#f4f4f4" stroke-width="1.51"/><path d="M10,113L161,320L142,72Z" fill="#f4f4f4" stroke="#f4f4f4" stroke-width="1.51"/><path d="M10,113L142,72L-37,-18Z" fill="#f6f6f6" stroke="#f6f6f6" stroke-width="1.51"/><path d="M-37,-18L142,72L167,-11Z" fill="#f6f6f6" stroke="#f6f6f6" stroke-width="1.51"/><path d="M1451,-50L1327,-94L1264,167Z" fill="#e0e0e0" stroke="#e0e0e0" stroke-width="1.51"/><path d="M1300,579L1493,443L1268,488Z" fill="#d7d7d7" stroke="#d7d7d7" stroke-width="1.51"/><path d="M1089,821L1297,773L1111,635Z" fill="#d4d4d4" stroke="#d4d4d4" stroke-width="1.51"/><path d="M1166,980L1297,773L1089,821Z" fill="#d0d0d0" stroke="#d0d0d0" stroke-width="1.51"/><path d="M641,1091L754,961L623,950Z" fill="#d7d7d7" stroke="#d7d7d7" stroke-width="1.51"/><path d="M924,972L1166,980L1089,821Z" fill="#d0d0d0" stroke="#d0d0d0" stroke-width="1.51"/><path d="M278,740L344,983L421,742Z" fill="#e1e1e1" stroke="#e1e1e1" stroke-width="1.51"/><path d="M497,980L641,1091L623,950Z" fill="#d8d8d8" stroke="#d8d8d8" stroke-width="1.51"/><path d="M155,906L344,983L278,740Z" fill="#e0e0e0" stroke="#e0e0e0" stroke-width="1.51"/><path d="M101,794L278,740L155,599Z" fill="#e6e6e6" stroke="#e6e6e6" stroke-width="1.51"/><path d="M-14,281L-44,421L161,320Z" fill="#f2f2f2" stroke="#f2f2f2" stroke-width="1.51"/><path d="M-232,301L-44,421L-14,281Z" fill="#f4f4f4" stroke="#f4f4f4" stroke-width="1.51"/><path d="M1661,158L1462,137L1425,250Z" fill="#d9d9d9" stroke="#d9d9d9" stroke-width="1.51"/><path d="M1425,250L1462,137L1264,167Z" fill="#dcdcdc" stroke="#dcdcdc" stroke-width="1.51"/><path d="M0,666L101,794L155,599Z" fill="#e8e8e8" stroke="#e8e8e8" stroke-width="1.51"/><path d="M494,1138L641,1091L497,980Z" fill="#d7d7d7" stroke="#d7d7d7" stroke-width="1.51"/><path d="M1297,773L1423,641L1300,579Z" fill="#d2d2d2" stroke="#d2d2d2" stroke-width="1.51"/><path d="M1465,-219L1300,-208L1327,-94Z" fill="#e2e2e2" stroke="#e2e2e2" stroke-width="1.51"/><path d="M1327,-94L1300,-208L1113,-72Z" fill="#e4e4e4" stroke="#e4e4e4" stroke-width="1.51"/><path d="M-44,421L0,666L155,599Z" fill="#ededed" stroke="#ededed" stroke-width="1.51"/><path d="M1423,641L1493,443L1300,579Z" fill="#d5d5d5" stroke="#d5d5d5" stroke-width="1.51"/><path d="M261,-172L100,-194L167,-11Z" fill="#f7f7f7" stroke="#f7f7f7" stroke-width="1.51"/><path d="M-54,-260L100,-194L261,-172Z" fill="#f9f9f9" stroke="#f9f9f9" stroke-width="1.51"/><path d="M-54,-260L261,-172L619,-211Z" fill="#f8f8f8" stroke="#f8f8f8" stroke-width="1.51"/><path d="M1000,1068L1166,980L924,972Z" fill="#cfcfcf" stroke="#cfcfcf" stroke-width="1.51"/><path d="M1297,773L1422,828L1423,641Z" fill="#cecece" stroke="#cecece" stroke-width="1.51"/><path d="M1262,1160L1000,1068L763,1073Z" fill="#cccccc" stroke="#cccccc" stroke-width="1.51"/><path d="M763,1073L1000,1068L924,972Z" fill="#d1d1d1" stroke="#d1d1d1" stroke-width="1.51"/><path d="M19,985L155,906L101,794Z" fill="#e1e1e1" stroke="#e1e1e1" stroke-width="1.51"/><path d="M101,794L155,906L278,740Z" fill="#e3e3e3" stroke="#e3e3e3" stroke-width="1.51"/><path d="M-243,120L-232,301L-14,281Z" fill="#f6f6f6" stroke="#f6f6f6" stroke-width="1.51"/><path d="M100,-194L-37,-18L167,-11Z" fill="#f8f8f8" stroke="#f8f8f8" stroke-width="1.51"/><path d="M1462,137L1451,-50L1264,167Z" fill="#dddddd" stroke="#dddddd" stroke-width="1.51"/><path d="M1623,-22L1451,-50L1462,137Z" fill="#dbdbdb" stroke="#dbdbdb" stroke-width="1.51"/><path d="M641,1091L494,1138L763,1073Z" fill="#d4d4d4" stroke="#d4d4d4" stroke-width="1.51"/><path d="M344,983L494,1138L497,980Z" fill="#d9d9d9" stroke="#d9d9d9" stroke-width="1.51"/><path d="M269,1071L494,1138L344,983Z" fill="#d8d8d8" stroke="#d8d8d8" stroke-width="1.51"/><path d="M155,906L269,1071L344,983Z" fill="#dcdcdc" stroke="#dcdcdc" stroke-width="1.51"/><path d="M1614,635L1598,420L1493,443Z" fill="#d2d2d2" stroke="#d2d2d2" stroke-width="1.51"/><path d="M1349,926L1422,828L1297,773Z" fill="#cccccc" stroke="#cccccc" stroke-width="1.51"/><path d="M1166,980L1349,926L1297,773Z" fill="#cccccc" stroke="#cccccc" stroke-width="1.51"/><path d="M1000,1068L1160,1074L1166,980Z" fill="#cbcbcb" stroke="#cbcbcb" stroke-width="1.51"/><path d="M1262,1160L1160,1074L1000,1068Z" fill="#c8c8c8" stroke="#c8c8c8" stroke-width="1.51"/><path d="M1262,1160L1349,926L1166,980Z" fill="#c8c8c8" stroke="#c8c8c8" stroke-width="1.51"/><path d="M1493,443L1598,420L1425,250Z" fill="#d7d7d7" stroke="#d7d7d7" stroke-width="1.51"/><path d="M1614,635L1493,443L1423,641Z" fill="#d1d1d1" stroke="#d1d1d1" stroke-width="1.51"/><path d="M155,906L171,1085L269,1071Z" fill="#dcdcdc" stroke="#dcdcdc" stroke-width="1.51"/><path d="M0,666L-44,820L101,794Z" fill="#e7e7e7" stroke="#e7e7e7" stroke-width="1.51"/><path d="M-149,746L-44,820L0,666Z" fill="#e8e8e8" stroke="#e8e8e8" stroke-width="1.51"/><path d="M1451,-50L1465,-219L1327,-94Z" fill="#e0e0e0" stroke="#e0e0e0" stroke-width="1.51"/><path d="M1300,-208L1465,-219L1099,-257Z" fill="#e5e5e5" stroke="#e5e5e5" stroke-width="1.51"/><path d="M1623,-22L1465,-219L1451,-50Z" fill="#dddddd" stroke="#dddddd" stroke-width="1.51"/><path d="M19,985L171,1085L155,906Z" fill="#dedede" stroke="#dedede" stroke-width="1.51"/><path d="M269,1071L171,1085L494,1138Z" fill="#d8d8d8" stroke="#d8d8d8" stroke-width="1.51"/><path d="M-44,421L-165,657L0,666Z" fill="#eeeeee" stroke="#eeeeee" stroke-width="1.51"/><path d="M-231,489L-165,657L-44,421Z" fill="#f0f0f0" stroke="#f0f0f0" stroke-width="1.51"/><path d="M-243,120L-14,281L10,113Z" fill="#f6f6f6" stroke="#f6f6f6" stroke-width="1.51"/><path d="M1598,420L1663,326L1425,250Z" fill="#d6d6d6" stroke="#d6d6d6" stroke-width="1.51"/><path d="M1614,635L1663,326L1598,420Z" fill="#d2d2d2" stroke="#d2d2d2" stroke-width="1.51"/><path d="M1593,792L1614,635L1423,641Z" fill="#cccccc" stroke="#cccccc" stroke-width="1.51"/><path d="M1593,792L1423,641L1422,828Z" fill="#cccccc" stroke="#cccccc" stroke-width="1.51"/><path d="M-232,301L-231,489L-44,421Z" fill="#f4f4f4" stroke="#f4f4f4" stroke-width="1.51"/><path d="M100,-194L-54,-260L-37,-18Z" fill="#fafafa" stroke="#fafafa" stroke-width="1.51"/><path d="M-37,-18L-243,120L10,113Z" fill="#f8f8f8" stroke="#f8f8f8" stroke-width="1.51"/><path d="M1099,-257L-54,-260L619,-211Z" fill="#f5f5f5" stroke="#f5f5f5" stroke-width="1.51"/><path d="M-197,945L-149,746L-165,657Z" fill="#e8e8e8" stroke="#e8e8e8" stroke-width="1.51"/><path d="M-165,657L-149,746L0,666Z" fill="#eaeaea" stroke="#eaeaea" stroke-width="1.51"/><path d="M-44,820L19,985L101,794Z" fill="#e3e3e3" stroke="#e3e3e3" stroke-width="1.51"/><path d="M-37,1128L19,985L-176,1110Z" fill="#dddddd" stroke="#dddddd" stroke-width="1.51"/><path d="M1663,326L1661,158L1425,250Z" fill="#d7d7d7" stroke="#d7d7d7" stroke-width="1.51"/><path d="M-54,-260L-174,-85L-37,-18Z" fill="#fafafa" stroke="#fafafa" stroke-width="1.51"/><path d="M1661,158L1623,-22L1462,137Z" fill="#d9d9d9" stroke="#d9d9d9" stroke-width="1.51"/><path d="M-174,-85L-243,120L-37,-18Z" fill="#f9f9f9" stroke="#f9f9f9" stroke-width="1.51"/><path d="M-232,301L-243,120L-231,489Z" fill="#f6f6f6" stroke="#f6f6f6" stroke-width="1.51"/><path d="M1349,926L1508,916L1422,828Z" fill="#c9c9c9" stroke="#c9c9c9" stroke-width="1.51"/><path d="M1490,1129L1508,916L1349,926Z" fill="#c4c4c4" stroke="#c4c4c4" stroke-width="1.51"/><path d="M1508,916L1593,792L1422,828Z" fill="#c8c8c8" stroke="#c8c8c8" stroke-width="1.51"/><path d="M1614,635L1617,933L1663,326Z" fill="#cccccc" stroke="#cccccc" stroke-width="1.51"/><path d="M1160,1074L1262,1160L1166,980Z" fill="#c8c8c8" stroke="#c8c8c8" stroke-width="1.51"/><path d="M494,1138L1262,1160L763,1073Z" fill="#d0d0d0" stroke="#d0d0d0" stroke-width="1.51"/><path d="M1623,-22L1636,-243L1465,-219Z" fill="#dcdcdc" stroke="#dcdcdc" stroke-width="1.51"/><path d="M1465,-219L1636,-243L1099,-257Z" fill="#e2e2e2" stroke="#e2e2e2" stroke-width="1.51"/><path d="M1661,158L1636,-243L1623,-22Z" fill="#d9d9d9" stroke="#d9d9d9" stroke-width="1.51"/><path d="M1508,916L1617,933L1593,792Z" fill="#c5c5c5" stroke="#c5c5c5" stroke-width="1.51"/><path d="M1593,792L1617,933L1614,635Z" fill="#c7c7c7" stroke="#c7c7c7" stroke-width="1.51"/><path d="M1589,1121L1617,933L1508,916Z" fill="#c1c1c1" stroke="#c1c1c1" stroke-width="1.51"/><path d="M-54,-260L-236,-237L-174,-85Z" fill="#fcfcfc" stroke="#fcfcfc" stroke-width="1.51"/><path d="M-174,-85L-236,-237L-243,120Z" fill="#fbfbfb" stroke="#fbfbfb" stroke-width="1.51"/><path d="M19,985L-37,1128L171,1085Z" fill="#dcdcdc" stroke="#dcdcdc" stroke-width="1.51"/><path d="M171,1085L-37,1128L494,1138Z" fill="#d8d8d8" stroke="#d8d8d8" stroke-width="1.51"/><path d="M494,1138L-37,1128L1262,1160Z" fill="#d4d4d4" stroke="#d4d4d4" stroke-width="1.51"/><path d="M-197,945L19,985L-44,820Z" fill="#e2e2e2" stroke="#e2e2e2" stroke-width="1.51"/><path d="M-197,945L-44,820L-149,746Z" fill="#e5e5e5" stroke="#e5e5e5" stroke-width="1.51"/><path d="M-231,489L-197,945L-165,657Z" fill="#ebebeb" stroke="#ebebeb" stroke-width="1.51"/><path d="M1262,1160L1490,1129L1349,926Z" fill="#c4c4c4" stroke="#c4c4c4" stroke-width="1.51"/><path d="M-197,945L-176,1110L19,985Z" fill="#dfdfdf" stroke="#dfdfdf" stroke-width="1.51"/><path d="M1490,1129L1589,1121L1508,916Z" fill="#c0c0c0" stroke="#c0c0c0" stroke-width="1.51"/><path d="M1262,1160L1589,1121L1490,1129Z" fill="#c0c0c0" stroke="#c0c0c0" stroke-width="1.51"/></svg>